<mxfile host="app.diagrams.net" modified="2023-08-01T19:08:09.174Z" agent="Mozilla/5.0 (X11; Linux x86_64) AppleWebKit/537.36 (KHTML, like Gecko) Chrome/115.0.0.0 Safari/537.36" etag="Ne_e6T8gY_yooBIgCgJG" version="21.6.6" type="github" pages="3">
  <diagram id="C5RBs43oDa-KdzZeNtuy" name="Authentication">
    <mxGraphModel dx="1434" dy="765" grid="1" gridSize="10" guides="1" tooltips="1" connect="1" arrows="1" fold="1" page="1" pageScale="1" pageWidth="827" pageHeight="1169" math="0" shadow="0">
      <root>
        <mxCell id="WIyWlLk6GJQsqaUBKTNV-0" />
        <mxCell id="WIyWlLk6GJQsqaUBKTNV-1" parent="WIyWlLk6GJQsqaUBKTNV-0" />
        <mxCell id="ouerLZBTuXJicgJi_KRU-0" value="&lt;&lt;model&gt;&gt;&#xa;Patient" style="swimlane;fontStyle=1;align=center;verticalAlign=middle;childLayout=stackLayout;horizontal=1;startSize=26;horizontalStack=0;resizeParent=1;resizeLast=0;collapsible=1;marginBottom=0;rounded=0;shadow=0;strokeWidth=1;" parent="WIyWlLk6GJQsqaUBKTNV-1" vertex="1">
          <mxGeometry x="1160" y="290" width="160" height="460" as="geometry">
            <mxRectangle x="130" y="380" width="160" height="26" as="alternateBounds" />
          </mxGeometry>
        </mxCell>
        <mxCell id="ouerLZBTuXJicgJi_KRU-1" value="- Patient ID&#xa;" style="text;align=left;verticalAlign=top;spacingLeft=4;spacingRight=4;overflow=hidden;rotatable=0;points=[[0,0.5],[1,0.5]];portConstraint=eastwest;" parent="ouerLZBTuXJicgJi_KRU-0" vertex="1">
          <mxGeometry y="26" width="160" height="26" as="geometry" />
        </mxCell>
        <mxCell id="ouerLZBTuXJicgJi_KRU-2" value="- name" style="text;align=left;verticalAlign=top;spacingLeft=4;spacingRight=4;overflow=hidden;rotatable=0;points=[[0,0.5],[1,0.5]];portConstraint=eastwest;rounded=0;shadow=0;html=0;" parent="ouerLZBTuXJicgJi_KRU-0" vertex="1">
          <mxGeometry y="52" width="160" height="26" as="geometry" />
        </mxCell>
        <mxCell id="ouerLZBTuXJicgJi_KRU-3" value="- DOB" style="text;align=left;verticalAlign=top;spacingLeft=4;spacingRight=4;overflow=hidden;rotatable=0;points=[[0,0.5],[1,0.5]];portConstraint=eastwest;" parent="ouerLZBTuXJicgJi_KRU-0" vertex="1">
          <mxGeometry y="78" width="160" height="26" as="geometry" />
        </mxCell>
        <mxCell id="ouerLZBTuXJicgJi_KRU-4" value="- address" style="text;align=left;verticalAlign=top;spacingLeft=4;spacingRight=4;overflow=hidden;rotatable=0;points=[[0,0.5],[1,0.5]];portConstraint=eastwest;rounded=0;shadow=0;html=0;" parent="ouerLZBTuXJicgJi_KRU-0" vertex="1">
          <mxGeometry y="104" width="160" height="26" as="geometry" />
        </mxCell>
        <mxCell id="ouerLZBTuXJicgJi_KRU-5" value="- gender" style="text;align=left;verticalAlign=top;spacingLeft=4;spacingRight=4;overflow=hidden;rotatable=0;points=[[0,0.5],[1,0.5]];portConstraint=eastwest;rounded=0;shadow=0;html=0;" parent="ouerLZBTuXJicgJi_KRU-0" vertex="1">
          <mxGeometry y="130" width="160" height="26" as="geometry" />
        </mxCell>
        <mxCell id="ouerLZBTuXJicgJi_KRU-6" value="- phone" style="text;align=left;verticalAlign=top;spacingLeft=4;spacingRight=4;overflow=hidden;rotatable=0;points=[[0,0.5],[1,0.5]];portConstraint=eastwest;rounded=0;shadow=0;html=0;" parent="ouerLZBTuXJicgJi_KRU-0" vertex="1">
          <mxGeometry y="156" width="160" height="26" as="geometry" />
        </mxCell>
        <mxCell id="ouerLZBTuXJicgJi_KRU-7" value="- NID&#xa;" style="text;align=left;verticalAlign=top;spacingLeft=4;spacingRight=4;overflow=hidden;rotatable=0;points=[[0,0.5],[1,0.5]];portConstraint=eastwest;rounded=0;shadow=0;html=0;" parent="ouerLZBTuXJicgJi_KRU-0" vertex="1">
          <mxGeometry y="182" width="160" height="32" as="geometry" />
        </mxCell>
        <mxCell id="ouerLZBTuXJicgJi_KRU-8" value="- height&#xa;" style="text;align=left;verticalAlign=top;spacingLeft=4;spacingRight=4;overflow=hidden;rotatable=0;points=[[0,0.5],[1,0.5]];portConstraint=eastwest;rounded=0;shadow=0;html=0;" parent="ouerLZBTuXJicgJi_KRU-0" vertex="1">
          <mxGeometry y="214" width="160" height="32" as="geometry" />
        </mxCell>
        <mxCell id="ouerLZBTuXJicgJi_KRU-10" value="- weight&#xa;&#xa;- occupations[]&#xa;" style="text;align=left;verticalAlign=top;spacingLeft=4;spacingRight=4;overflow=hidden;rotatable=0;points=[[0,0.5],[1,0.5]];portConstraint=eastwest;rounded=0;shadow=0;html=0;" parent="ouerLZBTuXJicgJi_KRU-0" vertex="1">
          <mxGeometry y="246" width="160" height="84" as="geometry" />
        </mxCell>
        <mxCell id="ouerLZBTuXJicgJi_KRU-16" value="" style="endArrow=none;html=1;rounded=0;entryX=1.019;entryY=0.884;entryDx=0;entryDy=0;entryPerimeter=0;" parent="ouerLZBTuXJicgJi_KRU-0" target="ouerLZBTuXJicgJi_KRU-10" edge="1">
          <mxGeometry width="50" height="50" relative="1" as="geometry">
            <mxPoint y="320" as="sourcePoint" />
            <mxPoint x="50" y="270" as="targetPoint" />
          </mxGeometry>
        </mxCell>
        <mxCell id="ouerLZBTuXJicgJi_KRU-11" value="+ getById(id)" style="text;align=left;verticalAlign=top;spacingLeft=4;spacingRight=4;overflow=hidden;rotatable=0;points=[[0,0.5],[1,0.5]];portConstraint=eastwest;rounded=0;shadow=0;html=0;" parent="ouerLZBTuXJicgJi_KRU-0" vertex="1">
          <mxGeometry y="330" width="160" height="30" as="geometry" />
        </mxCell>
        <mxCell id="ouerLZBTuXJicgJi_KRU-12" value="+ getByNID(nid)" style="text;align=left;verticalAlign=top;spacingLeft=4;spacingRight=4;overflow=hidden;rotatable=0;points=[[0,0.5],[1,0.5]];portConstraint=eastwest;rounded=0;shadow=0;html=0;" parent="ouerLZBTuXJicgJi_KRU-0" vertex="1">
          <mxGeometry y="360" width="160" height="32" as="geometry" />
        </mxCell>
        <mxCell id="ouerLZBTuXJicgJi_KRU-13" value="+ getByName(name)" style="text;align=left;verticalAlign=top;spacingLeft=4;spacingRight=4;overflow=hidden;rotatable=0;points=[[0,0.5],[1,0.5]];portConstraint=eastwest;rounded=0;shadow=0;html=0;" parent="ouerLZBTuXJicgJi_KRU-0" vertex="1">
          <mxGeometry y="392" width="160" height="28" as="geometry" />
        </mxCell>
        <mxCell id="ouerLZBTuXJicgJi_KRU-14" value="+ getByPhoneNo(phn)" style="text;align=left;verticalAlign=top;spacingLeft=4;spacingRight=4;overflow=hidden;rotatable=0;points=[[0,0.5],[1,0.5]];portConstraint=eastwest;rounded=0;shadow=0;html=0;" parent="ouerLZBTuXJicgJi_KRU-0" vertex="1">
          <mxGeometry y="420" width="160" height="32" as="geometry" />
        </mxCell>
        <mxCell id="ouerLZBTuXJicgJi_KRU-22" value="&lt;p style=&quot;margin:0px;margin-top:4px;text-align:center;&quot;&gt;&lt;i&gt;&amp;lt;&amp;lt;boundary&amp;gt;&amp;gt;&lt;/i&gt;&lt;br&gt;&lt;b&gt;LoginUI&lt;/b&gt;&lt;/p&gt;&lt;hr size=&quot;1&quot;&gt;&lt;p style=&quot;margin:0px;margin-left:4px;&quot;&gt;&lt;br&gt;&lt;/p&gt;&lt;hr size=&quot;1&quot;&gt;&lt;p style=&quot;margin:0px;margin-left:4px;&quot;&gt;+ inputPatientInfo(username, pass)&lt;/p&gt;&lt;p style=&quot;margin:0px;margin-left:4px;&quot;&gt;+ login()&lt;/p&gt;&lt;p style=&quot;margin:0px;margin-left:4px;&quot;&gt;+ forgotPass(username, email)&lt;/p&gt;&lt;p style=&quot;margin:0px;margin-left:4px;&quot;&gt;&lt;br&gt;&lt;/p&gt;" style="verticalAlign=top;align=left;overflow=fill;fontSize=12;fontFamily=Helvetica;html=1;" parent="WIyWlLk6GJQsqaUBKTNV-1" vertex="1">
          <mxGeometry x="150" y="220" width="240" height="130" as="geometry" />
        </mxCell>
        <mxCell id="ouerLZBTuXJicgJi_KRU-23" value="&lt;p style=&quot;margin:0px;margin-top:4px;text-align:center;&quot;&gt;&lt;i&gt;&amp;lt;&amp;lt;boundary&amp;gt;&amp;gt;&lt;/i&gt;&lt;br&gt;&lt;b&gt;RegisterUI&lt;/b&gt;&lt;/p&gt;&lt;hr size=&quot;1&quot;&gt;&lt;p style=&quot;margin:0px;margin-left:4px;&quot;&gt;&lt;br&gt;&lt;/p&gt;&lt;hr size=&quot;1&quot;&gt;&lt;p style=&quot;margin:0px;margin-left:4px;&quot;&gt;+ inputPatientInfo(username, fullname, password, phone)&lt;/p&gt;&lt;p style=&quot;margin:0px;margin-left:4px;&quot;&gt;+ signup()&lt;/p&gt;" style="verticalAlign=top;align=left;overflow=fill;fontSize=12;fontFamily=Helvetica;html=1;" parent="WIyWlLk6GJQsqaUBKTNV-1" vertex="1">
          <mxGeometry x="80" y="640" width="380" height="110" as="geometry" />
        </mxCell>
        <mxCell id="ouerLZBTuXJicgJi_KRU-24" value="&lt;p style=&quot;margin:0px;margin-top:4px;text-align:center;&quot;&gt;&lt;i&gt;&amp;lt;&amp;lt;control&amp;gt;&amp;gt;&lt;/i&gt;&lt;br&gt;&lt;b&gt;AuthControl&lt;/b&gt;&lt;/p&gt;&lt;hr size=&quot;1&quot;&gt;&lt;p style=&quot;margin:0px;margin-left:4px;&quot;&gt;&lt;br&gt;&lt;/p&gt;&lt;hr size=&quot;1&quot;&gt;&lt;p style=&quot;margin:0px;margin-left:4px;&quot;&gt;+ inputPatientInfo(username, fullname, password, gender, phone)&lt;/p&gt;&lt;p style=&quot;margin:0px;margin-left:4px;&quot;&gt;+ forgetPassword(username, email)&lt;/p&gt;&lt;p style=&quot;margin:0px;margin-left:4px;&quot;&gt;&lt;br&gt;&lt;/p&gt;&lt;p style=&quot;margin:0px;margin-left:4px;&quot;&gt;+ signup(username,fullname, password, gender, phone)&lt;/p&gt;" style="verticalAlign=top;align=left;overflow=fill;fontSize=12;fontFamily=Helvetica;html=1;" parent="WIyWlLk6GJQsqaUBKTNV-1" vertex="1">
          <mxGeometry x="630" y="420" width="370" height="150" as="geometry" />
        </mxCell>
      </root>
    </mxGraphModel>
  </diagram>
  <diagram id="90BwVWJfoiFmS7jmwn2u" name="Search">
    <mxGraphModel dx="989" dy="528" grid="1" gridSize="10" guides="1" tooltips="1" connect="1" arrows="1" fold="1" page="1" pageScale="1" pageWidth="850" pageHeight="1100" math="0" shadow="0">
      <root>
        <mxCell id="0" />
        <mxCell id="1" parent="0" />
        <mxCell id="DYPxfwgayY07thLflfDZ-1" value="&lt;&lt;view&gt;&gt;&#xa;SearchUI&#xa;" style="swimlane;fontStyle=1;align=center;verticalAlign=middle;childLayout=stackLayout;horizontal=1;startSize=26;horizontalStack=0;resizeParent=1;resizeLast=0;collapsible=1;marginBottom=0;rounded=0;shadow=0;strokeWidth=1;spacing=6;spacingTop=12;" parent="1" vertex="1">
          <mxGeometry x="40" y="70" width="270" height="340" as="geometry">
            <mxRectangle x="230" y="140" width="160" height="26" as="alternateBounds" />
          </mxGeometry>
        </mxCell>
        <mxCell id="DYPxfwgayY07thLflfDZ-2" value="" style="line;html=1;strokeWidth=1;align=left;verticalAlign=middle;spacingTop=-1;spacingLeft=3;spacingRight=3;rotatable=0;labelPosition=right;points=[];portConstraint=eastwest;" parent="DYPxfwgayY07thLflfDZ-1" vertex="1">
          <mxGeometry y="26" width="270" height="8" as="geometry" />
        </mxCell>
        <mxCell id="DYPxfwgayY07thLflfDZ-3" value="+selectName()&#xa;&#xa;+ selectSpeciality()&#xa;&#xa;+ selectLocation()&#xa;&#xa;+ selectSymptom()&#xa;&#xa;+ selectHospital()&#xa;&#xa;+ selectGender()" style="text;align=left;verticalAlign=top;spacingLeft=4;spacingRight=4;overflow=hidden;rotatable=0;points=[[0,0.5],[1,0.5]];portConstraint=eastwest;" parent="DYPxfwgayY07thLflfDZ-1" vertex="1">
          <mxGeometry y="34" width="270" height="176" as="geometry" />
        </mxCell>
        <mxCell id="4tIJRRfcUaRdHpvq3RzD-19" value="" style="endArrow=none;html=1;rounded=0;" edge="1" parent="DYPxfwgayY07thLflfDZ-1">
          <mxGeometry width="50" height="50" relative="1" as="geometry">
            <mxPoint y="210" as="sourcePoint" />
            <mxPoint x="270" y="210" as="targetPoint" />
            <Array as="points">
              <mxPoint x="30" y="210" />
            </Array>
          </mxGeometry>
        </mxCell>
        <mxCell id="DYPxfwgayY07thLflfDZ-10" value="+viewSearchResults()&#xa;&#xa;+search(Speciality, Location, Symptom, Hospital)" style="text;align=left;verticalAlign=top;spacingLeft=4;spacingRight=4;overflow=hidden;rotatable=0;points=[[0,0.5],[1,0.5]];portConstraint=eastwest;" parent="DYPxfwgayY07thLflfDZ-1" vertex="1">
          <mxGeometry y="210" width="270" height="80" as="geometry" />
        </mxCell>
        <mxCell id="9JgbJdfANQ0KhbxYy4nV-2" value="" style="rounded=0;whiteSpace=wrap;html=1;" parent="1" vertex="1">
          <mxGeometry x="990" y="70" width="230" height="433.5" as="geometry" />
        </mxCell>
        <mxCell id="9JgbJdfANQ0KhbxYy4nV-3" value="" style="endArrow=none;html=1;rounded=0;" parent="1" edge="1">
          <mxGeometry width="50" height="50" relative="1" as="geometry">
            <mxPoint x="990" y="120" as="sourcePoint" />
            <mxPoint x="1219.9999999999998" y="120" as="targetPoint" />
            <Array as="points">
              <mxPoint x="1110" y="120" />
              <mxPoint x="1220" y="120" />
            </Array>
          </mxGeometry>
        </mxCell>
        <mxCell id="9JgbJdfANQ0KhbxYy4nV-4" value="&amp;lt;&amp;lt;model&amp;gt;&amp;gt;" style="text;html=1;strokeColor=none;fillColor=none;align=center;verticalAlign=middle;whiteSpace=wrap;rounded=0;" parent="1" vertex="1">
          <mxGeometry x="1075" y="80" width="60" height="20" as="geometry" />
        </mxCell>
        <mxCell id="9JgbJdfANQ0KhbxYy4nV-6" value="Doctor" style="text;html=1;strokeColor=none;fillColor=none;align=center;verticalAlign=middle;whiteSpace=wrap;rounded=0;" parent="1" vertex="1">
          <mxGeometry x="1075" y="100" width="60" height="20" as="geometry" />
        </mxCell>
        <mxCell id="9JgbJdfANQ0KhbxYy4nV-8" value="" style="rounded=0;whiteSpace=wrap;html=1;" parent="1" vertex="1">
          <mxGeometry x="550" y="520" width="180" height="180" as="geometry" />
        </mxCell>
        <mxCell id="9JgbJdfANQ0KhbxYy4nV-9" value="" style="endArrow=none;html=1;rounded=0;" parent="1" target="9JgbJdfANQ0KhbxYy4nV-8" edge="1">
          <mxGeometry width="50" height="50" relative="1" as="geometry">
            <mxPoint x="550" y="570" as="sourcePoint" />
            <mxPoint x="600" y="520" as="targetPoint" />
            <Array as="points">
              <mxPoint x="730" y="570" />
            </Array>
          </mxGeometry>
        </mxCell>
        <mxCell id="9JgbJdfANQ0KhbxYy4nV-11" value="&amp;lt;&amp;lt;model&amp;gt;&amp;gt;" style="text;html=1;strokeColor=none;fillColor=none;align=center;verticalAlign=middle;whiteSpace=wrap;rounded=0;" parent="1" vertex="1">
          <mxGeometry x="605" y="520" width="60" height="20" as="geometry" />
        </mxCell>
        <mxCell id="9JgbJdfANQ0KhbxYy4nV-12" value="Symptom" style="text;html=1;strokeColor=none;fillColor=none;align=center;verticalAlign=middle;whiteSpace=wrap;rounded=0;" parent="1" vertex="1">
          <mxGeometry x="605" y="540" width="60" height="20" as="geometry" />
        </mxCell>
        <mxCell id="9JgbJdfANQ0KhbxYy4nV-15" value="- symptom" style="text;html=1;strokeColor=none;fillColor=none;align=left;verticalAlign=middle;whiteSpace=wrap;rounded=0;" parent="1" vertex="1">
          <mxGeometry x="550" y="570" width="180" height="20" as="geometry" />
        </mxCell>
        <mxCell id="9JgbJdfANQ0KhbxYy4nV-16" value="- speciality[]" style="text;html=1;strokeColor=none;fillColor=none;align=left;verticalAlign=middle;whiteSpace=wrap;rounded=0;" parent="1" vertex="1">
          <mxGeometry x="550" y="590" width="180" height="20" as="geometry" />
        </mxCell>
        <mxCell id="9JgbJdfANQ0KhbxYy4nV-17" value="" style="endArrow=none;html=1;rounded=0;" parent="1" edge="1">
          <mxGeometry width="50" height="50" relative="1" as="geometry">
            <mxPoint x="550" y="620" as="sourcePoint" />
            <mxPoint x="730.0000000000002" y="620.0000000000002" as="targetPoint" />
            <Array as="points">
              <mxPoint x="730" y="620" />
            </Array>
          </mxGeometry>
        </mxCell>
        <mxCell id="9JgbJdfANQ0KhbxYy4nV-18" value="+ getSymptom()" style="text;html=1;strokeColor=none;fillColor=none;align=left;verticalAlign=middle;whiteSpace=wrap;rounded=0;" parent="1" vertex="1">
          <mxGeometry x="550" y="630" width="180" height="20" as="geometry" />
        </mxCell>
        <mxCell id="9JgbJdfANQ0KhbxYy4nV-19" value="+ getSpeciality()" style="text;html=1;strokeColor=none;fillColor=none;align=left;verticalAlign=middle;whiteSpace=wrap;rounded=0;" parent="1" vertex="1">
          <mxGeometry x="550" y="650" width="180" height="20" as="geometry" />
        </mxCell>
        <mxCell id="9JgbJdfANQ0KhbxYy4nV-21" value="- Doctor ID" style="text;html=1;strokeColor=none;fillColor=none;align=left;verticalAlign=middle;whiteSpace=wrap;rounded=0;" parent="1" vertex="1">
          <mxGeometry x="990" y="140" width="230" height="20" as="geometry" />
        </mxCell>
        <mxCell id="9JgbJdfANQ0KhbxYy4nV-22" value="- Name" style="text;html=1;strokeColor=none;fillColor=none;align=left;verticalAlign=middle;whiteSpace=wrap;rounded=0;" parent="1" vertex="1">
          <mxGeometry x="990" y="160" width="230" height="20" as="geometry" />
        </mxCell>
        <mxCell id="9JgbJdfANQ0KhbxYy4nV-23" value="- Speciality" style="text;html=1;strokeColor=none;fillColor=none;align=left;verticalAlign=middle;whiteSpace=wrap;rounded=0;" parent="1" vertex="1">
          <mxGeometry x="990" y="200" width="230" height="20" as="geometry" />
        </mxCell>
        <mxCell id="9JgbJdfANQ0KhbxYy4nV-24" value="- Gender" style="text;html=1;strokeColor=none;fillColor=none;align=left;verticalAlign=middle;whiteSpace=wrap;rounded=0;" parent="1" vertex="1">
          <mxGeometry x="990" y="220" width="230" height="20" as="geometry" />
        </mxCell>
        <mxCell id="9JgbJdfANQ0KhbxYy4nV-25" value="- Chamber location[]" style="text;html=1;strokeColor=none;fillColor=none;align=left;verticalAlign=middle;whiteSpace=wrap;rounded=0;" parent="1" vertex="1">
          <mxGeometry x="990" y="240" width="230" height="20" as="geometry" />
        </mxCell>
        <mxCell id="4tIJRRfcUaRdHpvq3RzD-4" style="edgeStyle=orthogonalEdgeStyle;rounded=0;orthogonalLoop=1;jettySize=auto;html=1;entryX=1.011;entryY=0.649;entryDx=0;entryDy=0;entryPerimeter=0;" edge="1" parent="1" source="9JgbJdfANQ0KhbxYy4nV-26" target="9JgbJdfANQ0KhbxYy4nV-36">
          <mxGeometry relative="1" as="geometry" />
        </mxCell>
        <mxCell id="9JgbJdfANQ0KhbxYy4nV-26" value="- Affiliated Hospital" style="text;html=1;strokeColor=none;fillColor=none;align=left;verticalAlign=middle;whiteSpace=wrap;rounded=0;" parent="1" vertex="1">
          <mxGeometry x="990" y="260" width="230" height="20" as="geometry" />
        </mxCell>
        <mxCell id="9JgbJdfANQ0KhbxYy4nV-27" value="- Degree[]" style="text;html=1;strokeColor=none;fillColor=none;align=left;verticalAlign=middle;whiteSpace=wrap;rounded=0;" parent="1" vertex="1">
          <mxGeometry x="990" y="280" width="230" height="20" as="geometry" />
        </mxCell>
        <mxCell id="9JgbJdfANQ0KhbxYy4nV-32" value="" style="endArrow=none;html=1;rounded=0;entryX=1;entryY=0;entryDx=0;entryDy=0;" parent="1" edge="1">
          <mxGeometry width="50" height="50" relative="1" as="geometry">
            <mxPoint x="990" y="130" as="sourcePoint" />
            <mxPoint x="1219.9999999999998" y="130" as="targetPoint" />
          </mxGeometry>
        </mxCell>
        <mxCell id="9JgbJdfANQ0KhbxYy4nV-33" value="&lt;&lt;control&gt;&gt;&#xa;SearchUI&#xa;" style="swimlane;fontStyle=1;align=center;verticalAlign=middle;childLayout=stackLayout;horizontal=1;startSize=26;horizontalStack=0;resizeParent=1;resizeLast=0;collapsible=1;marginBottom=0;rounded=0;shadow=0;strokeWidth=1;spacing=6;spacingTop=12;" parent="1" vertex="1">
          <mxGeometry x="480" y="70" width="330" height="260" as="geometry">
            <mxRectangle x="230" y="140" width="160" height="26" as="alternateBounds" />
          </mxGeometry>
        </mxCell>
        <mxCell id="9JgbJdfANQ0KhbxYy4nV-34" value="" style="line;html=1;strokeWidth=1;align=left;verticalAlign=middle;spacingTop=-1;spacingLeft=3;spacingRight=3;rotatable=0;labelPosition=right;points=[];portConstraint=eastwest;" parent="9JgbJdfANQ0KhbxYy4nV-33" vertex="1">
          <mxGeometry y="26" width="330" height="8" as="geometry" />
        </mxCell>
        <mxCell id="9JgbJdfANQ0KhbxYy4nV-36" value="+viewSearchResults()&#xa;&#xa;+searchSpeciality(speciality)&#xa;&#xa;+searchLocation(location)&#xa;&#xa;+searchSymptom(symptom)&#xa;&#xa;+searchHospital(hospital)&#xa;&#xa;+searchGender(gender)&#xa;&#xa;+search(Speciality, Location, Symptom, Hospital, Gender)" style="text;align=left;verticalAlign=top;spacingLeft=4;spacingRight=4;overflow=hidden;rotatable=0;points=[[0,0.5],[1,0.5]];portConstraint=eastwest;" parent="9JgbJdfANQ0KhbxYy4nV-33" vertex="1">
          <mxGeometry y="34" width="330" height="226" as="geometry" />
        </mxCell>
        <mxCell id="4tIJRRfcUaRdHpvq3RzD-3" style="edgeStyle=orthogonalEdgeStyle;rounded=0;orthogonalLoop=1;jettySize=auto;html=1;entryX=0.008;entryY=0.301;entryDx=0;entryDy=0;entryPerimeter=0;" edge="1" parent="1" source="DYPxfwgayY07thLflfDZ-3" target="9JgbJdfANQ0KhbxYy4nV-36">
          <mxGeometry relative="1" as="geometry" />
        </mxCell>
        <mxCell id="4tIJRRfcUaRdHpvq3RzD-5" value="- Domain" style="text;html=1;strokeColor=none;fillColor=none;align=left;verticalAlign=middle;whiteSpace=wrap;rounded=0;" vertex="1" parent="1">
          <mxGeometry x="990" y="180" width="230" height="20" as="geometry" />
        </mxCell>
        <mxCell id="4tIJRRfcUaRdHpvq3RzD-8" value="" style="endArrow=classic;html=1;rounded=0;exitX=0.5;exitY=0;exitDx=0;exitDy=0;" edge="1" parent="1">
          <mxGeometry width="50" height="50" relative="1" as="geometry">
            <mxPoint x="647.4999999999998" y="520" as="sourcePoint" />
            <mxPoint x="642.5" y="330" as="targetPoint" />
            <Array as="points">
              <mxPoint x="647" y="430" />
            </Array>
          </mxGeometry>
        </mxCell>
        <mxCell id="4tIJRRfcUaRdHpvq3RzD-9" value="" style="endArrow=none;html=1;rounded=0;" edge="1" parent="1" target="9JgbJdfANQ0KhbxYy4nV-2">
          <mxGeometry width="50" height="50" relative="1" as="geometry">
            <mxPoint x="990" y="310" as="sourcePoint" />
            <mxPoint x="1040" y="260" as="targetPoint" />
            <Array as="points">
              <mxPoint x="1220" y="310" />
            </Array>
          </mxGeometry>
        </mxCell>
        <mxCell id="4tIJRRfcUaRdHpvq3RzD-12" value="+ getByName(name)" style="text;html=1;strokeColor=none;fillColor=none;align=left;verticalAlign=middle;whiteSpace=wrap;rounded=0;" vertex="1" parent="1">
          <mxGeometry x="990" y="310" width="230" height="30" as="geometry" />
        </mxCell>
        <mxCell id="4tIJRRfcUaRdHpvq3RzD-13" value="+ getByLocation(location)" style="text;html=1;strokeColor=none;fillColor=none;align=left;verticalAlign=middle;whiteSpace=wrap;rounded=0;" vertex="1" parent="1">
          <mxGeometry x="990" y="340" width="230" height="30" as="geometry" />
        </mxCell>
        <mxCell id="4tIJRRfcUaRdHpvq3RzD-15" value="+ getByGender(gender)" style="text;html=1;strokeColor=none;fillColor=none;align=left;verticalAlign=middle;whiteSpace=wrap;rounded=0;" vertex="1" parent="1">
          <mxGeometry x="990" y="370" width="230" height="30" as="geometry" />
        </mxCell>
        <mxCell id="4tIJRRfcUaRdHpvq3RzD-16" value="+ getByHospital(hospital)" style="text;html=1;strokeColor=none;fillColor=none;align=left;verticalAlign=middle;whiteSpace=wrap;rounded=0;" vertex="1" parent="1">
          <mxGeometry x="990" y="400" width="230" height="30" as="geometry" />
        </mxCell>
        <mxCell id="4tIJRRfcUaRdHpvq3RzD-17" value="+ getBySpeciality(speciality)" style="text;html=1;strokeColor=none;fillColor=none;align=left;verticalAlign=middle;whiteSpace=wrap;rounded=0;" vertex="1" parent="1">
          <mxGeometry x="990" y="430" width="230" height="30" as="geometry" />
        </mxCell>
        <mxCell id="4tIJRRfcUaRdHpvq3RzD-18" value="+ getByDomain(domain)" style="text;html=1;strokeColor=none;fillColor=none;align=left;verticalAlign=middle;whiteSpace=wrap;rounded=0;" vertex="1" parent="1">
          <mxGeometry x="990" y="460" width="230" height="30" as="geometry" />
        </mxCell>
      </root>
    </mxGraphModel>
  </diagram>
  <diagram id="4tyRYNs6lP_VQwVB6I-c" name="Appointment">
    <mxGraphModel dx="989" dy="528" grid="1" gridSize="10" guides="1" tooltips="1" connect="1" arrows="1" fold="1" page="1" pageScale="1" pageWidth="850" pageHeight="1100" math="0" shadow="0">
      <root>
        <mxCell id="0" />
        <mxCell id="1" parent="0" />
        <mxCell id="NdhS8b43Ejj1a18yJw5R-2" value="" style="rounded=0;whiteSpace=wrap;html=1;" vertex="1" parent="1">
          <mxGeometry x="460" y="170" width="330" height="700" as="geometry" />
        </mxCell>
        <mxCell id="NdhS8b43Ejj1a18yJw5R-3" value="" style="endArrow=none;html=1;rounded=0;entryX=1.013;entryY=0.442;entryDx=0;entryDy=0;entryPerimeter=0;" edge="1" parent="1" target="NdhS8b43Ejj1a18yJw5R-2">
          <mxGeometry width="50" height="50" relative="1" as="geometry">
            <mxPoint x="460" y="480" as="sourcePoint" />
            <mxPoint x="590" y="480" as="targetPoint" />
          </mxGeometry>
        </mxCell>
        <mxCell id="QfA7BQt6moT_DF0dY41K-1" value="&amp;lt;&amp;lt;model&amp;gt;&amp;gt;&lt;br&gt;Appointment" style="text;html=1;strokeColor=none;fillColor=none;align=center;verticalAlign=middle;whiteSpace=wrap;rounded=0;" vertex="1" parent="1">
          <mxGeometry x="595" y="170" width="60" height="30" as="geometry" />
        </mxCell>
        <mxCell id="QfA7BQt6moT_DF0dY41K-2" value="" style="endArrow=none;html=1;rounded=0;entryX=0.999;entryY=0.054;entryDx=0;entryDy=0;entryPerimeter=0;" edge="1" parent="1">
          <mxGeometry width="50" height="50" relative="1" as="geometry">
            <mxPoint x="460.33" y="202.2" as="sourcePoint" />
            <mxPoint x="789.9999999999999" y="200.00000000000006" as="targetPoint" />
          </mxGeometry>
        </mxCell>
      </root>
    </mxGraphModel>
  </diagram>
</mxfile>
